<svg width="538" height="166" viewBox="0 0 538 166" fill="none" xmlns="http://www.w3.org/2000/svg">
<path d="M14.1719 15.0781C14.1719 17.0156 13.5469 18.5573 12.2969 19.7031C11.0573 20.849 9.42188 21.4219 7.39062 21.4219C5.35938 21.401 3.74479 20.8125 2.54688 19.6562C1.35938 18.5 0.765625 16.974 0.765625 15.0781V14.0625H4.39062V14.9531C4.39062 15.9531 4.66146 16.7188 5.20312 17.25C5.74479 17.7708 6.47396 18.0312 7.39062 18.0312C8.36979 18.0312 9.11979 17.7604 9.64062 17.2188C10.1719 16.6667 10.4375 15.9115 10.4375 14.9531V3.875H4V0.484375H14.1719V15.0781ZM24.3687 6.3125C24.3687 5.05208 24.6708 3.95312 25.275 3.01562C25.8896 2.07812 26.749 1.35417 27.8531 0.84375C28.9677 0.333333 30.249 0.078125 31.6969 0.078125C33.124 0.078125 34.3948 0.328125 35.5094 0.828125C36.624 1.32812 37.4937 2.03646 38.1187 2.95312C38.7437 3.86979 39.0562 4.9375 39.0562 6.15625H35.1969C35.176 5.28125 34.8271 4.57812 34.15 4.04688C33.4833 3.50521 32.6031 3.23438 31.5094 3.23438C30.5094 3.23438 29.7073 3.48438 29.1031 3.98438C28.5094 4.47396 28.2125 5.10938 28.2125 5.89062C28.2125 6.66146 28.4729 7.22917 28.9937 7.59375C29.525 7.95833 30.2281 8.24479 31.1031 8.45312L34.4625 9.28125C35.9937 9.64583 37.2333 10.3177 38.1812 11.2969C39.1292 12.2656 39.6031 13.5156 39.6031 15.0469C39.6031 16.3281 39.2802 17.4479 38.6344 18.4062C37.999 19.3646 37.0927 20.1094 35.9156 20.6406C34.749 21.1615 33.3896 21.4219 31.8375 21.4219C29.5354 21.4219 27.6604 20.8646 26.2125 19.75C24.775 18.625 23.9937 17.099 23.8687 15.1719H27.7281C27.7698 16.1302 28.1708 16.8854 28.9312 17.4375C29.6917 17.9792 30.6812 18.25 31.9 18.25C33.0771 18.25 33.999 18 34.6656 17.5C35.3323 17 35.6656 16.3125 35.6656 15.4375C35.6656 14.6875 35.4312 14.1198 34.9625 13.7344C34.4937 13.349 33.8792 13.0625 33.1187 12.875L29.6812 12.0469C27.9937 11.6406 26.6865 10.9635 25.7594 10.0156C24.8323 9.05729 24.3687 7.82292 24.3687 6.3125Z" fill="white" fill-opacity="0.6"/>
<path d="M246.8 21.4219C244.748 21.4219 242.92 20.9792 241.316 20.0938C239.722 19.2083 238.477 17.9531 237.581 16.3281C236.685 14.7031 236.238 12.8385 236.238 10.7344C236.238 8.64062 236.68 6.78646 237.566 5.17188C238.451 3.54688 239.691 2.29167 241.284 1.40625C242.889 0.520833 244.727 0.078125 246.8 0.078125C248.508 0.078125 250.071 0.369792 251.488 0.953125C252.904 1.53646 254.076 2.38021 255.003 3.48438C255.93 4.57812 256.524 5.84896 256.784 7.29688H252.613C252.29 6.19271 251.602 5.29167 250.55 4.59375C249.498 3.88542 248.238 3.53125 246.769 3.53125C245.446 3.53125 244.279 3.82812 243.269 4.42188C242.269 5.01562 241.498 5.86458 240.956 6.96875C240.415 8.0625 240.144 9.32812 240.144 10.7656C240.144 12.2135 240.42 13.4844 240.972 14.5781C241.524 15.6615 242.3 16.4896 243.3 17.0625C244.31 17.6354 245.467 17.9219 246.769 17.9219C248.196 17.9219 249.441 17.5781 250.503 16.8906C251.576 16.1927 252.279 15.2708 252.613 14.125H256.784C256.545 15.5521 255.967 16.8229 255.05 17.9375C254.133 19.0417 252.967 19.901 251.55 20.5156C250.133 21.1198 248.55 21.4219 246.8 21.4219ZM265.919 6.3125C265.919 5.05208 266.221 3.95312 266.825 3.01562C267.44 2.07812 268.299 1.35417 269.403 0.84375C270.518 0.333333 271.799 0.078125 273.247 0.078125C274.674 0.078125 275.945 0.328125 277.059 0.828125C278.174 1.32812 279.044 2.03646 279.669 2.95312C280.294 3.86979 280.606 4.9375 280.606 6.15625H276.747C276.726 5.28125 276.377 4.57812 275.7 4.04688C275.033 3.50521 274.153 3.23438 273.059 3.23438C272.059 3.23438 271.257 3.48438 270.653 3.98438C270.059 4.47396 269.763 5.10938 269.763 5.89062C269.763 6.66146 270.023 7.22917 270.544 7.59375C271.075 7.95833 271.778 8.24479 272.653 8.45312L276.013 9.28125C277.544 9.64583 278.783 10.3177 279.731 11.2969C280.679 12.2656 281.153 13.5156 281.153 15.0469C281.153 16.3281 280.83 17.4479 280.184 18.4062C279.549 19.3646 278.643 20.1094 277.466 20.6406C276.299 21.1615 274.94 21.4219 273.388 21.4219C271.085 21.4219 269.21 20.8646 267.763 19.75C266.325 18.625 265.544 17.099 265.419 15.1719H269.278C269.32 16.1302 269.721 16.8854 270.481 17.4375C271.242 17.9792 272.231 18.25 273.45 18.25C274.627 18.25 275.549 18 276.216 17.5C276.882 17 277.216 16.3125 277.216 15.4375C277.216 14.6875 276.981 14.1198 276.513 13.7344C276.044 13.349 275.429 13.0625 274.669 12.875L271.231 12.0469C269.544 11.6406 268.236 10.9635 267.309 10.0156C266.382 9.05729 265.919 7.82292 265.919 6.3125ZM290.288 6.3125C290.288 5.05208 290.59 3.95312 291.194 3.01562C291.808 2.07812 292.668 1.35417 293.772 0.84375C294.886 0.333333 296.168 0.078125 297.616 0.078125C299.043 0.078125 300.314 0.328125 301.428 0.828125C302.543 1.32812 303.413 2.03646 304.038 2.95312C304.663 3.86979 304.975 4.9375 304.975 6.15625H301.116C301.095 5.28125 300.746 4.57812 300.069 4.04688C299.402 3.50521 298.522 3.23438 297.428 3.23438C296.428 3.23438 295.626 3.48438 295.022 3.98438C294.428 4.47396 294.131 5.10938 294.131 5.89062C294.131 6.66146 294.392 7.22917 294.913 7.59375C295.444 7.95833 296.147 8.24479 297.022 8.45312L300.381 9.28125C301.913 9.64583 303.152 10.3177 304.1 11.2969C305.048 12.2656 305.522 13.5156 305.522 15.0469C305.522 16.3281 305.199 17.4479 304.553 18.4062C303.918 19.3646 303.011 20.1094 301.834 20.6406C300.668 21.1615 299.308 21.4219 297.756 21.4219C295.454 21.4219 293.579 20.8646 292.131 19.75C290.694 18.625 289.913 17.099 289.788 15.1719H293.647C293.689 16.1302 294.09 16.8854 294.85 17.4375C295.61 17.9792 296.6 18.25 297.819 18.25C298.996 18.25 299.918 18 300.584 17.5C301.251 17 301.584 16.3125 301.584 15.4375C301.584 14.6875 301.35 14.1198 300.881 13.7344C300.413 13.349 299.798 13.0625 299.038 12.875L295.6 12.0469C293.913 11.6406 292.605 10.9635 291.678 10.0156C290.751 9.05729 290.288 7.82292 290.288 6.3125ZM506.406 21.4219C504.354 21.4219 502.526 20.9792 500.922 20.0938C499.328 19.2083 498.083 17.9531 497.188 16.3281C496.292 14.7031 495.844 12.8385 495.844 10.7344C495.844 8.64062 496.286 6.78646 497.172 5.17188C498.057 3.54688 499.297 2.29167 500.891 1.40625C502.495 0.520833 504.333 0.078125 506.406 0.078125C508.115 0.078125 509.677 0.369792 511.094 0.953125C512.51 1.53646 513.682 2.38021 514.609 3.48438C515.536 4.57812 516.13 5.84896 516.391 7.29688H512.219C511.896 6.19271 511.208 5.29167 510.156 4.59375C509.104 3.88542 507.844 3.53125 506.375 3.53125C505.052 3.53125 503.885 3.82812 502.875 4.42188C501.875 5.01562 501.104 5.86458 500.562 6.96875C500.021 8.0625 499.75 9.32812 499.75 10.7656C499.75 12.2135 500.026 13.4844 500.578 14.5781C501.13 15.6615 501.906 16.4896 502.906 17.0625C503.917 17.6354 505.073 17.9219 506.375 17.9219C507.802 17.9219 509.047 17.5781 510.109 16.8906C511.182 16.1927 511.885 15.2708 512.219 14.125H516.391C516.151 15.5521 515.573 16.8229 514.656 17.9375C513.74 19.0417 512.573 19.901 511.156 20.5156C509.74 21.1198 508.156 21.4219 506.406 21.4219ZM423.594 54.3125C423.594 53.0521 423.896 51.9531 424.5 51.0156C425.115 50.0781 425.974 49.3542 427.078 48.8438C428.193 48.3333 429.474 48.0781 430.922 48.0781C432.349 48.0781 433.62 48.3281 434.734 48.8281C435.849 49.3281 436.719 50.0365 437.344 50.9531C437.969 51.8698 438.281 52.9375 438.281 54.1562H434.422C434.401 53.2812 434.052 52.5781 433.375 52.0469C432.708 51.5052 431.828 51.2344 430.734 51.2344C429.734 51.2344 428.932 51.4844 428.328 51.9844C427.734 52.474 427.438 53.1094 427.438 53.8906C427.438 54.6615 427.698 55.2292 428.219 55.5938C428.75 55.9583 429.453 56.2448 430.328 56.4531L433.688 57.2812C435.219 57.6458 436.458 58.3177 437.406 59.2969C438.354 60.2656 438.828 61.5156 438.828 63.0469C438.828 64.3281 438.505 65.4479 437.859 66.4062C437.224 67.3646 436.318 68.1094 435.141 68.6406C433.974 69.1615 432.615 69.4219 431.062 69.4219C428.76 69.4219 426.885 68.8646 425.438 67.75C424 66.625 423.219 65.099 423.094 63.1719H426.953C426.995 64.1302 427.396 64.8854 428.156 65.4375C428.917 65.9792 429.906 66.25 431.125 66.25C432.302 66.25 433.224 66 433.891 65.5C434.557 65 434.891 64.3125 434.891 63.4375C434.891 62.6875 434.656 62.1198 434.188 61.7344C433.719 61.349 433.104 61.0625 432.344 60.875L428.906 60.0469C427.219 59.6406 425.911 58.9635 424.984 58.0156C424.057 57.0573 423.594 55.8229 423.594 54.3125ZM450.666 48.4844L453.056 56.4844C453.567 58.2344 453.978 59.7083 454.291 60.9062C454.603 62.1042 454.791 62.849 454.853 63.1406C455.384 61.4948 456.15 58.9583 457.15 55.5312C457.337 54.9375 457.629 53.9792 458.025 52.6562C458.431 51.3229 458.801 50.1146 459.134 49.0312H463.197C463.499 49.8854 464.546 53.3073 466.337 59.2969L467.494 63.1406C467.556 62.8177 467.744 62.0573 468.056 60.8594C468.379 59.651 468.801 58.1823 469.322 56.4531L471.712 48.4844H475.712L469.291 69H465.666L464.416 65C463.843 63.125 463.223 61.0938 462.556 58.9062C461.9 56.7188 461.442 55.1771 461.181 54.2812L457.962 65L456.712 69H453.056L446.666 48.4844H450.666ZM484.784 69V48.4844H488.534V69H484.784ZM503.091 51.9062V57.3594H510.966V60.6094H503.091V69H499.341V48.4844H512.466V51.9062H503.091ZM537.522 51.875H531.319V69H527.569V51.875H521.303V48.4844H537.522V51.875ZM126.4 96.4844H130.213L137.822 117H133.853L132.197 112.328H124.353L122.619 117H118.744L126.4 96.4844ZM131.103 109.219L129.791 105.609C129.666 105.266 129.322 104.25 128.759 102.562L128.322 101.281C128.239 101.562 128.041 102.151 127.728 103.047C127.416 103.943 127.098 104.797 126.775 105.609L125.431 109.219H131.103ZM146.847 96.4844H154.988C157.488 96.4844 159.383 97.0417 160.675 98.1562C161.977 99.2604 162.628 100.839 162.628 102.891C162.628 104.318 162.295 105.536 161.628 106.547C160.972 107.547 160.045 108.271 158.847 108.719L162.753 117H158.566L155.113 109.359H150.597V117H146.847V96.4844ZM154.988 106.094C156.206 106.094 157.128 105.802 157.753 105.219C158.378 104.625 158.691 103.859 158.691 102.922C158.691 101.984 158.373 101.229 157.738 100.656C157.113 100.073 156.196 99.7812 154.988 99.7812H150.597V106.094H154.988ZM180.247 96.4844C182.247 96.4844 184.028 96.9219 185.591 97.7969C187.164 98.6719 188.387 99.8958 189.262 101.469C190.137 103.031 190.575 104.807 190.575 106.797C190.575 108.776 190.143 110.542 189.278 112.094C188.414 113.635 187.195 114.839 185.622 115.703C184.059 116.568 182.268 117 180.247 117H172.622V96.4844H180.247ZM179.919 113.578C181.262 113.578 182.44 113.297 183.45 112.734C184.471 112.161 185.257 111.365 185.809 110.344C186.361 109.323 186.637 108.141 186.637 106.797C186.637 105.432 186.361 104.234 185.809 103.203C185.257 102.161 184.471 101.354 183.45 100.781C182.44 100.198 181.262 99.9062 179.919 99.9062H176.372V113.578H179.919ZM200.272 96.4844H204.022V109.453C204.022 111.036 204.47 112.188 205.366 112.906C206.261 113.625 207.402 113.984 208.788 113.984C210.256 113.984 211.423 113.604 212.288 112.844C213.152 112.073 213.584 110.943 213.584 109.453V96.4844H217.334V109.609C217.334 111.297 216.965 112.729 216.225 113.906C215.485 115.073 214.47 115.953 213.178 116.547C211.897 117.13 210.433 117.422 208.788 117.422C207.121 117.422 205.647 117.125 204.366 116.531C203.084 115.927 202.079 115.042 201.35 113.875C200.631 112.698 200.272 111.276 200.272 109.609V96.4844ZM228.172 117V96.4844H231.922V117H228.172ZM259.4 96.4844V117H255.884L246.447 102.953V117H242.728V96.4844H246.259L255.697 110.562V96.4844H259.4ZM290.894 106.734C290.894 108.797 290.425 110.641 289.487 112.266C288.55 113.891 287.253 115.156 285.597 116.062C283.951 116.969 282.102 117.422 280.05 117.422C277.998 117.422 276.149 116.974 274.503 116.078C272.868 115.182 271.586 113.922 270.659 112.297C269.732 110.672 269.269 108.828 269.269 106.766C269.269 104.693 269.732 102.849 270.659 101.234C271.586 99.6094 272.868 98.3438 274.503 97.4375C276.149 96.5312 278.008 96.0781 280.081 96.0781C282.133 96.0781 283.977 96.5312 285.612 97.4375C287.258 98.3438 288.55 99.6042 289.487 101.219C290.425 102.823 290.894 104.661 290.894 106.734ZM286.925 106.734C286.925 105.339 286.633 104.099 286.05 103.016C285.467 101.932 284.649 101.089 283.597 100.484C282.555 99.8698 281.383 99.5625 280.081 99.5625C278.758 99.5625 277.571 99.8698 276.519 100.484C275.477 101.089 274.659 101.932 274.066 103.016C273.472 104.099 273.175 105.349 273.175 106.766C273.175 108.151 273.472 109.391 274.066 110.484C274.659 111.568 275.477 112.411 276.519 113.016C277.571 113.62 278.758 113.922 280.081 113.922C281.383 113.922 282.555 113.62 283.597 113.016C284.649 112.411 285.467 111.568 286.05 110.484C286.633 109.391 286.925 108.141 286.925 106.734ZM5.28125 144.484L7.78125 148.047C8.14583 148.557 8.60938 149.276 9.17188 150.203C9.73438 151.13 10.099 151.745 10.2656 152.047L15.1406 144.484H19.7812L12.5469 154.766L19.8125 165.031H15.0469L12.7656 161.766C12.276 161.036 11.776 160.245 11.2656 159.391C10.7552 158.526 10.4219 157.964 10.2656 157.703L5.15625 165H0.515625L7.84375 154.766L0.484375 144.484H5.28125ZM37.4312 165.422C35.3792 165.422 33.551 164.979 31.9469 164.094C30.3531 163.208 29.1083 161.953 28.2125 160.328C27.3167 158.703 26.8687 156.839 26.8687 154.734C26.8687 152.641 27.3115 150.786 28.1969 149.172C29.0823 147.547 30.3219 146.292 31.9156 145.406C33.5198 144.521 35.3583 144.078 37.4312 144.078C39.1396 144.078 40.7021 144.37 42.1187 144.953C43.5354 145.536 44.7073 146.38 45.6344 147.484C46.5615 148.578 47.1552 149.849 47.4156 151.297H43.2437C42.9208 150.193 42.2333 149.292 41.1812 148.594C40.1292 147.885 38.8687 147.531 37.4 147.531C36.0771 147.531 34.9104 147.828 33.9 148.422C32.9 149.016 32.1292 149.865 31.5875 150.969C31.0458 152.062 30.775 153.328 30.775 154.766C30.775 156.214 31.051 157.484 31.6031 158.578C32.1552 159.661 32.9312 160.49 33.9312 161.062C34.9417 161.635 36.0979 161.922 37.4 161.922C38.8271 161.922 40.0719 161.578 41.1344 160.891C42.2073 160.193 42.9104 159.271 43.2437 158.125H47.4156C47.176 159.552 46.5979 160.823 45.6812 161.938C44.7646 163.042 43.5979 163.901 42.1812 164.516C40.7646 165.12 39.1812 165.422 37.4312 165.422ZM77.4562 154.734C77.4562 156.797 76.9875 158.641 76.05 160.266C75.1125 161.891 73.8156 163.156 72.1594 164.062C70.5135 164.969 68.6646 165.422 66.6125 165.422C64.5604 165.422 62.7115 164.974 61.0656 164.078C59.4302 163.182 58.149 161.922 57.2219 160.297C56.2948 158.672 55.8312 156.828 55.8312 154.766C55.8312 152.693 56.2948 150.849 57.2219 149.234C58.149 147.609 59.4302 146.344 61.0656 145.438C62.7115 144.531 64.5708 144.078 66.6437 144.078C68.6958 144.078 70.5396 144.531 72.175 145.438C73.8208 146.344 75.1125 147.604 76.05 149.219C76.9875 150.823 77.4562 152.661 77.4562 154.734ZM73.4875 154.734C73.4875 153.339 73.1958 152.099 72.6125 151.016C72.0292 149.932 71.2115 149.089 70.1594 148.484C69.1177 147.87 67.9458 147.562 66.6437 147.562C65.3208 147.562 64.1333 147.87 63.0812 148.484C62.0396 149.089 61.2219 149.932 60.6281 151.016C60.0344 152.099 59.7375 153.349 59.7375 154.766C59.7375 156.151 60.0344 157.391 60.6281 158.484C61.2219 159.568 62.0396 160.411 63.0812 161.016C64.1333 161.62 65.3208 161.922 66.6437 161.922C67.9458 161.922 69.1177 161.62 70.1594 161.016C71.2115 160.411 72.0292 159.568 72.6125 158.484C73.1958 157.391 73.4875 156.141 73.4875 154.734ZM94.9344 144.484C96.9344 144.484 98.7156 144.922 100.278 145.797C101.851 146.672 103.075 147.896 103.95 149.469C104.825 151.031 105.262 152.807 105.262 154.797C105.262 156.776 104.83 158.542 103.966 160.094C103.101 161.635 101.882 162.839 100.309 163.703C98.7469 164.568 96.9552 165 94.9344 165H87.3094V144.484H94.9344ZM94.6062 161.578C95.95 161.578 97.1271 161.297 98.1375 160.734C99.1583 160.161 99.9448 159.365 100.497 158.344C101.049 157.323 101.325 156.141 101.325 154.797C101.325 153.432 101.049 152.234 100.497 151.203C99.9448 150.161 99.1583 149.354 98.1375 148.781C97.1271 148.198 95.95 147.906 94.6062 147.906H91.0594V161.578H94.6062ZM118.866 147.906V153.031H127.287V156.297H118.866V161.578H128.241V165H115.116V144.484H128.241V147.906H118.866Z" fill="white" fill-opacity="0.8"/>
<path d="M91.4844 0.484375H95.2344V9L104.328 9.03125V0.484375H108.094V21H104.328V12.2656H95.2344V21H91.4844V0.484375ZM133.322 3.875H127.119V21H123.369V3.875H117.103V0.484375H133.322V3.875ZM162.644 0.484375V21H158.956V16.4219C158.956 13.8802 159.066 11.3125 159.284 8.71875L154.097 20.4219H150.738L145.769 8.8125C146.008 11.4792 146.128 14.0156 146.128 16.4219V21H142.503V0.484375H145.909L152.519 16.2656L159.253 0.484375H162.644ZM185.887 17.6094V21H173.622V0.484375H177.403V17.6094H185.887ZM342.666 96.4844H346.416V109.453C346.416 111.036 346.864 112.188 347.759 112.906C348.655 113.625 349.796 113.984 351.181 113.984C352.65 113.984 353.817 113.604 354.681 112.844C355.546 112.073 355.978 110.943 355.978 109.453V96.4844H359.728V109.609C359.728 111.297 359.358 112.729 358.619 113.906C357.879 115.073 356.864 115.953 355.572 116.547C354.291 117.13 352.827 117.422 351.181 117.422C349.515 117.422 348.041 117.125 346.759 116.531C345.478 115.927 344.473 115.042 343.744 113.875C343.025 112.698 342.666 111.276 342.666 109.609V96.4844ZM387.237 96.4844V117H383.722L374.284 102.953V117H370.566V96.4844H374.097L383.534 110.562V96.4844H387.237ZM398.247 117V96.4844H401.997V117H398.247ZM427.209 99.875H421.006V117H417.256V99.875H410.991V96.4844H427.209V99.875ZM439.328 96.4844L441.766 100.641C442.359 101.682 442.885 102.646 443.344 103.531C443.802 104.406 444.083 104.958 444.188 105.188C444.312 104.948 444.594 104.427 445.031 103.625C445.479 102.812 446.031 101.818 446.688 100.641L449.125 96.4844H453.312L446.047 108.781V117H442.297V108.781L435 96.4844H439.328Z" fill="#33FFFF"/>
<path d="M369.278 15.0781C369.278 17.0156 368.653 18.5573 367.403 19.7031C366.164 20.849 364.528 21.4219 362.497 21.4219C360.466 21.401 358.851 20.8125 357.653 19.6562C356.466 18.5 355.872 16.974 355.872 15.0781V14.0625H359.497V14.9531C359.497 15.9531 359.768 16.7188 360.309 17.25C360.851 17.7708 361.58 18.0312 362.497 18.0312C363.476 18.0312 364.226 17.7604 364.747 17.2188C365.278 16.6667 365.544 15.9115 365.544 14.9531V3.875H359.106V0.484375H369.278V15.0781ZM384.944 0.484375H388.756L396.366 21H392.397L390.741 16.3281H382.897L381.163 21H377.288L384.944 0.484375ZM389.647 13.2188L388.334 9.60938C388.209 9.26562 387.866 8.25 387.303 6.5625L386.866 5.28125C386.782 5.5625 386.584 6.15104 386.272 7.04688C385.959 7.94271 385.642 8.79688 385.319 9.60938L383.975 13.2188H389.647ZM405.734 0.484375L408.703 8.07812C409.151 9.27604 409.688 10.776 410.312 12.5781C410.948 14.3698 411.391 15.651 411.641 16.4219C411.922 15.651 412.375 14.3594 413 12.5469C413.635 10.7344 414.177 9.23438 414.625 8.04688L417.562 0.484375H421.562L413.594 21H409.734L401.656 0.484375H405.734ZM434.462 0.484375H438.275L445.884 21H441.916L440.259 16.3281H432.416L430.681 21H426.806L434.462 0.484375ZM439.166 13.2188L437.853 9.60938C437.728 9.26562 437.384 8.25 436.822 6.5625L436.384 5.28125C436.301 5.5625 436.103 6.15104 435.791 7.04688C435.478 7.94271 435.16 8.79688 434.837 9.60938L433.494 13.2188H439.166Z" fill="#FF66CC"/>
<path d="M1.625 102.312C1.625 101.052 1.92708 99.9531 2.53125 99.0156C3.14583 98.0781 4.00521 97.3542 5.10938 96.8438C6.22396 96.3333 7.50521 96.0781 8.95312 96.0781C10.3802 96.0781 11.651 96.3281 12.7656 96.8281C13.8802 97.3281 14.75 98.0365 15.375 98.9531C16 99.8698 16.3125 100.938 16.3125 102.156H12.4531C12.4323 101.281 12.0833 100.578 11.4062 100.047C10.7396 99.5052 9.85938 99.2344 8.76562 99.2344C7.76562 99.2344 6.96354 99.4844 6.35938 99.9844C5.76562 100.474 5.46875 101.109 5.46875 101.891C5.46875 102.661 5.72917 103.229 6.25 103.594C6.78125 103.958 7.48438 104.245 8.35938 104.453L11.7188 105.281C13.25 105.646 14.4896 106.318 15.4375 107.297C16.3854 108.266 16.8594 109.516 16.8594 111.047C16.8594 112.328 16.5365 113.448 15.8906 114.406C15.2552 115.365 14.349 116.109 13.1719 116.641C12.0052 117.161 10.6458 117.422 9.09375 117.422C6.79167 117.422 4.91667 116.865 3.46875 115.75C2.03125 114.625 1.25 113.099 1.125 111.172H4.98438C5.02604 112.13 5.42708 112.885 6.1875 113.438C6.94792 113.979 7.9375 114.25 9.15625 114.25C10.3333 114.25 11.2552 114 11.9219 113.5C12.5885 113 12.9219 112.312 12.9219 111.438C12.9219 110.688 12.6875 110.12 12.2188 109.734C11.75 109.349 11.1354 109.062 10.375 108.875L6.9375 108.047C5.25 107.641 3.94271 106.964 3.01562 106.016C2.08854 105.057 1.625 103.823 1.625 102.312ZM47.15 106.734C47.15 108.609 46.7594 110.307 45.9781 111.828C45.2073 113.339 44.1292 114.568 42.7437 115.516C41.3687 116.464 39.7958 117.052 38.025 117.281V118.5C38.025 119.271 38.1917 119.844 38.525 120.219C38.8583 120.594 39.4729 120.781 40.3687 120.781C40.7125 120.781 41.0979 120.76 41.525 120.719V123.656C40.8375 123.802 40.1448 123.875 39.4469 123.875C36.1448 123.875 34.4885 122.286 34.4781 119.109V117.281C32.7281 117.021 31.176 116.422 29.8219 115.484C28.4677 114.536 27.4104 113.312 26.65 111.812C25.9 110.302 25.525 108.62 25.525 106.766C25.525 104.693 25.9885 102.849 26.9156 101.234C27.8427 99.6094 29.124 98.3438 30.7594 97.4375C32.4052 96.5312 34.2646 96.0781 36.3375 96.0781C38.3896 96.0781 40.2333 96.5312 41.8687 97.4375C43.5146 98.3438 44.8062 99.6042 45.7437 101.219C46.6812 102.823 47.15 104.661 47.15 106.734ZM29.4312 106.766C29.4312 108.151 29.7281 109.391 30.3219 110.484C30.9156 111.568 31.7333 112.411 32.775 113.016C33.8271 113.62 35.0146 113.922 36.3375 113.922C37.6396 113.922 38.8115 113.62 39.8531 113.016C40.9052 112.411 41.7229 111.568 42.3062 110.484C42.8896 109.391 43.1812 108.141 43.1812 106.734C43.1812 105.349 42.8896 104.115 42.3062 103.031C41.7229 101.938 40.9052 101.089 39.8531 100.484C38.8115 99.8698 37.6396 99.5625 36.3375 99.5625C35.0146 99.5625 33.8271 99.8698 32.775 100.484C31.7333 101.089 30.9156 101.932 30.3219 103.016C29.7281 104.099 29.4312 105.349 29.4312 106.766ZM69.2687 113.609V117H57.0031V96.4844H60.7844V113.609H69.2687Z" fill="#66FFCC"/>
<path d="M2.29688 48.4844H10.4375C12.9375 48.4844 14.8333 49.0417 16.125 50.1562C17.4271 51.2604 18.0781 52.8385 18.0781 54.8906C18.0781 56.3177 17.7448 57.5365 17.0781 58.5469C16.4219 59.5469 15.4948 60.2708 14.2969 60.7188L18.2031 69H14.0156L10.5625 61.3594H6.04688V69H2.29688V48.4844ZM10.4375 58.0938C11.6562 58.0938 12.5781 57.8021 13.2031 57.2188C13.8281 56.625 14.1406 55.8594 14.1406 54.9219C14.1406 53.9844 13.8229 53.2292 13.1875 52.6562C12.5625 52.0729 11.6458 51.7812 10.4375 51.7812H6.04688V58.0938H10.4375ZM31.8219 51.9062V57.0312H40.2437V60.2969H31.8219V65.5781H41.1969V69H28.0719V48.4844H41.1969V51.9062H31.8219ZM57.2062 48.4844H61.0187L68.6281 69H64.6594L63.0031 64.3281H55.1594L53.425 69H49.55L57.2062 48.4844ZM61.9094 61.2188L60.5969 57.6094C60.4719 57.2656 60.1281 56.25 59.5656 54.5625L59.1281 53.2812C59.0448 53.5625 58.8469 54.151 58.5344 55.0469C58.2219 55.9427 57.9042 56.7969 57.5812 57.6094L56.2375 61.2188H61.9094ZM86.1062 69.4219C84.0542 69.4219 82.226 68.9792 80.6219 68.0938C79.0281 67.2083 77.7833 65.9531 76.8875 64.3281C75.9917 62.7031 75.5437 60.8385 75.5437 58.7344C75.5437 56.6406 75.9865 54.7865 76.8719 53.1719C77.7573 51.5469 78.9969 50.2917 80.5906 49.4062C82.1948 48.5208 84.0333 48.0781 86.1062 48.0781C87.8146 48.0781 89.3771 48.3698 90.7937 48.9531C92.2104 49.5365 93.3823 50.3802 94.3094 51.4844C95.2365 52.5781 95.8302 53.849 96.0906 55.2969H91.9187C91.5958 54.1927 90.9083 53.2917 89.8562 52.5938C88.8042 51.8854 87.5437 51.5312 86.075 51.5312C84.7521 51.5312 83.5854 51.8281 82.575 52.4219C81.575 53.0156 80.8042 53.8646 80.2625 54.9688C79.7208 56.0625 79.45 57.3281 79.45 58.7656C79.45 60.2135 79.726 61.4844 80.2781 62.5781C80.8302 63.6615 81.6062 64.4896 82.6062 65.0625C83.6167 65.6354 84.7729 65.9219 86.075 65.9219C87.5021 65.9219 88.7469 65.5781 89.8094 64.8906C90.8823 64.1927 91.5854 63.2708 91.9187 62.125H96.0906C95.851 63.5521 95.2729 64.8229 94.3562 65.9375C93.4396 67.0417 92.2729 67.901 90.8562 68.5156C89.4396 69.1198 87.8562 69.4219 86.1062 69.4219ZM120.053 51.875H113.85V69H110.1V51.875H103.834V48.4844H120.053V51.875ZM159.931 48.4844V69H156.416L146.978 54.9531V69H143.259V48.4844H146.791L156.228 62.5625V48.4844H159.931ZM176.581 48.4844H180.394L188.003 69H184.034L182.378 64.3281H174.534L172.8 69H168.925L176.581 48.4844ZM181.284 61.2188L179.972 57.6094C179.847 57.2656 179.503 56.25 178.941 54.5625L178.503 53.2812C178.42 53.5625 178.222 54.151 177.909 55.0469C177.597 55.9427 177.279 56.7969 176.956 57.6094L175.613 61.2188H181.284ZM209.528 51.875H203.325V69H199.575V51.875H193.309V48.4844H209.528V51.875ZM218.709 69V48.4844H222.459V69H218.709ZM235.359 48.4844L238.328 56.0781C238.776 57.276 239.312 58.776 239.938 60.5781C240.573 62.3698 241.016 63.651 241.266 64.4219C241.547 63.651 242 62.3594 242.625 60.5469C243.26 58.7344 243.802 57.2344 244.25 56.0469L247.188 48.4844H251.188L243.219 69H239.359L231.281 48.4844H235.359ZM263.947 51.9062V57.0312H272.369V60.2969H263.947V65.5781H273.322V69H260.197V48.4844H273.322V51.9062H263.947Z" fill="white"/>
<path d="M335.188 69.4219C333.135 69.4219 331.307 68.9792 329.703 68.0938C328.109 67.2083 326.865 65.9531 325.969 64.3281C325.073 62.7031 324.625 60.8385 324.625 58.7344C324.625 56.6406 325.068 54.7865 325.953 53.1719C326.839 51.5469 328.078 50.2917 329.672 49.4062C331.276 48.5208 333.115 48.0781 335.188 48.0781C336.896 48.0781 338.458 48.3698 339.875 48.9531C341.292 49.5365 342.464 50.3802 343.391 51.4844C344.318 52.5781 344.911 53.849 345.172 55.2969H341C340.677 54.1927 339.99 53.2917 338.938 52.5938C337.885 51.8854 336.625 51.5312 335.156 51.5312C333.833 51.5312 332.667 51.8281 331.656 52.4219C330.656 53.0156 329.885 53.8646 329.344 54.9688C328.802 56.0625 328.531 57.3281 328.531 58.7656C328.531 60.2135 328.807 61.4844 329.359 62.5781C329.911 63.6615 330.688 64.4896 331.688 65.0625C332.698 65.6354 333.854 65.9219 335.156 65.9219C336.583 65.9219 337.828 65.5781 338.891 64.8906C339.964 64.1927 340.667 63.2708 341 62.125H345.172C344.932 63.5521 344.354 64.8229 343.438 65.9375C342.521 67.0417 341.354 67.901 339.938 68.5156C338.521 69.1198 336.938 69.4219 335.188 69.4219ZM368.65 57.2188L368.041 60.2656H371.275L370.634 63.7188H367.337L366.275 69H362.697L363.759 63.7188H360.134L359.087 69H355.556L356.619 63.7188H353.837L354.509 60.2656H357.322L357.9 57.2188H354.791L355.462 53.7656H358.603L359.65 48.4844H363.244L362.181 53.7656H365.806L366.853 48.4844H370.416L369.353 53.7656H372.291L371.619 57.2188H368.65ZM365.103 57.2188H361.478L360.837 60.2656H364.462L365.103 57.2188Z" fill="#FF9933"/>
<path d="M186.325 144.484H190.137L197.747 165H193.778L192.122 160.328H184.278L182.544 165H178.669L186.325 144.484ZM191.028 157.219L189.716 153.609C189.591 153.266 189.247 152.25 188.684 150.562L188.247 149.281C188.164 149.562 187.966 150.151 187.653 151.047C187.341 151.943 187.023 152.797 186.7 153.609L185.356 157.219H191.028ZM223.444 144.484V165H219.928L210.491 150.953V165H206.772V144.484H210.303L219.741 158.562V144.484H223.444ZM242.078 144.484C244.078 144.484 245.859 144.922 247.422 145.797C248.995 146.672 250.219 147.896 251.094 149.469C251.969 151.031 252.406 152.807 252.406 154.797C252.406 156.776 251.974 158.542 251.109 160.094C250.245 161.635 249.026 162.839 247.453 163.703C245.891 164.568 244.099 165 242.078 165H234.453V144.484H242.078ZM241.75 161.578C243.094 161.578 244.271 161.297 245.281 160.734C246.302 160.161 247.089 159.365 247.641 158.344C248.193 157.323 248.469 156.141 248.469 154.797C248.469 153.432 248.193 152.234 247.641 151.203C247.089 150.161 246.302 149.354 245.281 148.781C244.271 148.198 243.094 147.906 241.75 147.906H238.203V161.578H241.75ZM262.259 144.484H270.4C272.9 144.484 274.796 145.042 276.087 146.156C277.39 147.26 278.041 148.839 278.041 150.891C278.041 152.318 277.707 153.536 277.041 154.547C276.384 155.547 275.457 156.271 274.259 156.719L278.166 165H273.978L270.525 157.359H266.009V165H262.259V144.484ZM270.4 154.094C271.619 154.094 272.541 153.802 273.166 153.219C273.791 152.625 274.103 151.859 274.103 150.922C274.103 149.984 273.785 149.229 273.15 148.656C272.525 148.073 271.608 147.781 270.4 147.781H266.009V154.094H270.4ZM308.362 154.734C308.362 156.797 307.894 158.641 306.956 160.266C306.019 161.891 304.722 163.156 303.066 164.062C301.42 164.969 299.571 165.422 297.519 165.422C295.467 165.422 293.618 164.974 291.972 164.078C290.336 163.182 289.055 161.922 288.128 160.297C287.201 158.672 286.737 156.828 286.737 154.766C286.737 152.693 287.201 150.849 288.128 149.234C289.055 147.609 290.336 146.344 291.972 145.438C293.618 144.531 295.477 144.078 297.55 144.078C299.602 144.078 301.446 144.531 303.081 145.438C304.727 146.344 306.019 147.604 306.956 149.219C307.894 150.823 308.362 152.661 308.362 154.734ZM304.394 154.734C304.394 153.339 304.102 152.099 303.519 151.016C302.935 149.932 302.118 149.089 301.066 148.484C300.024 147.87 298.852 147.562 297.55 147.562C296.227 147.562 295.04 147.87 293.987 148.484C292.946 149.089 292.128 149.932 291.534 151.016C290.941 152.099 290.644 153.349 290.644 154.766C290.644 156.151 290.941 157.391 291.534 158.484C292.128 159.568 292.946 160.411 293.987 161.016C295.04 161.62 296.227 161.922 297.55 161.922C298.852 161.922 300.024 161.62 301.066 161.016C302.118 160.411 302.935 159.568 303.519 158.484C304.102 157.391 304.394 156.141 304.394 154.734ZM318.216 165V144.484H321.966V165H318.216ZM340.397 144.484C342.397 144.484 344.178 144.922 345.741 145.797C347.314 146.672 348.538 147.896 349.413 149.469C350.288 151.031 350.725 152.807 350.725 154.797C350.725 156.776 350.293 158.542 349.428 160.094C348.564 161.635 347.345 162.839 345.772 163.703C344.209 164.568 342.418 165 340.397 165H332.772V144.484H340.397ZM340.069 161.578C341.413 161.578 342.59 161.297 343.6 160.734C344.621 160.161 345.407 159.365 345.959 158.344C346.511 157.323 346.788 156.141 346.788 154.797C346.788 153.432 346.511 152.234 345.959 151.203C345.407 150.161 344.621 149.354 343.6 148.781C342.59 148.198 341.413 147.906 340.069 147.906H336.522V161.578H340.069ZM373.931 150.312C373.931 149.052 374.233 147.953 374.837 147.016C375.452 146.078 376.311 145.354 377.416 144.844C378.53 144.333 379.811 144.078 381.259 144.078C382.686 144.078 383.957 144.328 385.072 144.828C386.186 145.328 387.056 146.036 387.681 146.953C388.306 147.87 388.619 148.938 388.619 150.156H384.759C384.739 149.281 384.39 148.578 383.712 148.047C383.046 147.505 382.166 147.234 381.072 147.234C380.072 147.234 379.27 147.484 378.666 147.984C378.072 148.474 377.775 149.109 377.775 149.891C377.775 150.661 378.035 151.229 378.556 151.594C379.087 151.958 379.791 152.245 380.666 152.453L384.025 153.281C385.556 153.646 386.796 154.318 387.744 155.297C388.692 156.266 389.166 157.516 389.166 159.047C389.166 160.328 388.843 161.448 388.197 162.406C387.561 163.365 386.655 164.109 385.478 164.641C384.311 165.161 382.952 165.422 381.4 165.422C379.098 165.422 377.223 164.865 375.775 163.75C374.337 162.625 373.556 161.099 373.431 159.172H377.291C377.332 160.13 377.733 160.885 378.494 161.438C379.254 161.979 380.244 162.25 381.462 162.25C382.64 162.25 383.561 162 384.228 161.5C384.895 161 385.228 160.312 385.228 159.438C385.228 158.688 384.994 158.12 384.525 157.734C384.056 157.349 383.442 157.062 382.681 156.875L379.244 156.047C377.556 155.641 376.249 154.964 375.322 154.016C374.395 153.057 373.931 151.823 373.931 150.312ZM413.284 147.875H407.081V165H403.331V147.875H397.066V144.484H413.284V147.875ZM422.403 144.484H426.153V157.453C426.153 159.036 426.601 160.188 427.497 160.906C428.393 161.625 429.533 161.984 430.919 161.984C432.388 161.984 433.554 161.604 434.419 160.844C435.283 160.073 435.716 158.943 435.716 157.453V144.484H439.466V157.609C439.466 159.297 439.096 160.729 438.356 161.906C437.617 163.073 436.601 163.953 435.309 164.547C434.028 165.13 432.565 165.422 430.919 165.422C429.252 165.422 427.778 165.125 426.497 164.531C425.216 163.927 424.21 163.042 423.481 161.875C422.763 160.698 422.403 159.276 422.403 157.609V144.484ZM457.928 144.484C459.928 144.484 461.709 144.922 463.272 145.797C464.845 146.672 466.069 147.896 466.944 149.469C467.819 151.031 468.256 152.807 468.256 154.797C468.256 156.776 467.824 158.542 466.959 160.094C466.095 161.635 464.876 162.839 463.303 163.703C461.741 164.568 459.949 165 457.928 165H450.303V144.484H457.928ZM457.6 161.578C458.944 161.578 460.121 161.297 461.131 160.734C462.152 160.161 462.939 159.365 463.491 158.344C464.043 157.323 464.319 156.141 464.319 154.797C464.319 153.432 464.043 152.234 463.491 151.203C462.939 150.161 462.152 149.354 461.131 148.781C460.121 148.198 458.944 147.906 457.6 147.906H454.053V161.578H457.6ZM478.109 165V144.484H481.859V165H478.109ZM513.15 154.734C513.15 156.797 512.681 158.641 511.744 160.266C510.806 161.891 509.509 163.156 507.853 164.062C506.207 164.969 504.358 165.422 502.306 165.422C500.254 165.422 498.405 164.974 496.759 164.078C495.124 163.182 493.843 161.922 492.916 160.297C491.989 158.672 491.525 156.828 491.525 154.766C491.525 152.693 491.989 150.849 492.916 149.234C493.843 147.609 495.124 146.344 496.759 145.438C498.405 144.531 500.265 144.078 502.337 144.078C504.39 144.078 506.233 144.531 507.869 145.438C509.515 146.344 510.806 147.604 511.744 149.219C512.681 150.823 513.15 152.661 513.15 154.734ZM509.181 154.734C509.181 153.339 508.89 152.099 508.306 151.016C507.723 149.932 506.905 149.089 505.853 148.484C504.811 147.87 503.64 147.562 502.337 147.562C501.015 147.562 499.827 147.87 498.775 148.484C497.733 149.089 496.916 149.932 496.322 151.016C495.728 152.099 495.431 153.349 495.431 154.766C495.431 156.151 495.728 157.391 496.322 158.484C496.916 159.568 497.733 160.411 498.775 161.016C499.827 161.62 501.015 161.922 502.337 161.922C503.64 161.922 504.811 161.62 505.853 161.016C506.905 160.411 507.723 159.568 508.306 158.484C508.89 157.391 509.181 156.141 509.181 154.734Z" fill="white" fill-opacity="0.5"/>
</svg>
