<svg width="644" height="436" viewBox="0 0 644 436" fill="none" xmlns="http://www.w3.org/2000/svg">
<rect x="119" y="7" width="517.593" height="377.843" rx="23" fill="#000033" stroke="white" stroke-width="14"/>
<rect x="126" y="72.7307" width="102.896" height="305.113" fill="white" fill-opacity="0.6"/>
<rect x="528.312" y="72.7307" width="102.688" height="305.113" fill="white" fill-opacity="0.6"/>
<rect x="228.688" y="72.7307" width="299.624" height="305.113" fill="white" fill-opacity="0.4"/>
<rect opacity="0.4" x="126" y="14" width="503.206" height="58.7306" fill="white" fill-opacity="0.4"/>
<ellipse cx="158.683" cy="44.3491" rx="5.90148" ry="5.99741" fill="white" fill-opacity="0.75"/>
<ellipse cx="178.354" cy="44.3491" rx="5.90148" ry="5.99741" fill="white" fill-opacity="0.6"/>
<ellipse cx="198.026" cy="44.3491" rx="5.90148" ry="5.99741" fill="white" fill-opacity="0.6"/>
<rect x="277" y="133.948" width="202.974" height="186.219" rx="12" fill="white" fill-opacity="0.6"/>
<mask id="mask0" mask-type="alpha" maskUnits="userSpaceOnUse" x="277" y="133" width="203" height="188">
<rect x="277" y="133.948" width="202.974" height="186.219" rx="12" fill="#FF66CC"/>
</mask>
<g mask="url(#mask0)">
<g opacity="0.75">
<path d="M251.572 281.311L258.582 287.606C265.583 294.008 279.615 306.436 294.62 306.291C309.626 306.145 325.646 292.889 340.652 292.743C355.657 292.597 369.689 305.026 384.804 303.462C399.927 301.791 416.155 285.861 431.498 281.354C446.85 276.74 461.295 283.818 476.425 282.067C491.555 280.315 507.327 270.27 515.227 265.061L523.12 259.958L516.489 345.572L509.038 344.976C501.588 344.38 486.686 343.188 471.784 341.996C456.882 340.804 441.98 339.613 427.079 338.421C412.177 337.229 397.275 336.037 382.373 334.845C367.472 333.653 352.57 332.461 337.668 331.27C322.766 330.078 307.864 328.886 292.963 327.694C278.061 326.502 263.159 325.31 255.708 324.714L248.257 324.118L251.572 281.311Z" fill="#000033" fill-opacity="0.2"/>
<path d="M208.544 306.943L212.601 306.054C216.658 305.097 224.735 303.42 232.924 299.78C241.019 296.207 249.114 290.839 257.303 286.36C265.398 281.948 273.493 278.258 281.682 278.308C289.758 278.258 297.872 281.948 306.061 287.266C314.119 292.684 322.252 299.73 330.44 301.575C338.479 303.42 346.631 299.73 354.633 295.318C362.84 290.839 371.01 285.471 379.012 287.266C387.2 288.994 395.389 298.052 403.391 305.148C411.561 312.31 419.768 317.678 427.77 320.362C435.921 323.046 443.961 323.046 452.149 321.251C460.282 319.523 468.34 315.833 472.434 314.105L476.528 312.31V323.046H472.471C468.414 323.046 460.338 323.046 452.149 323.046C444.054 323.046 435.959 323.046 427.77 323.046C419.675 323.046 411.58 323.046 403.391 323.046C395.314 323.046 387.2 323.046 379.012 323.046C370.954 323.046 362.821 323.046 354.633 323.046C346.593 323.046 338.442 323.046 330.44 323.046C322.233 323.046 314.063 323.046 306.061 323.046C297.872 323.046 289.684 323.046 281.682 323.046C273.512 323.046 265.305 323.046 257.303 323.046C249.151 323.046 241.112 323.046 232.924 323.046C224.791 323.046 216.733 323.046 212.639 323.046H208.544V306.943Z" fill="#000033" fill-opacity="0.5"/>
<path d="M248.209 302.694L254.781 301.018C261.352 299.406 274.496 295.961 287.64 294.349C300.783 292.673 313.927 292.673 327.07 297.683C340.214 302.694 353.357 312.714 366.501 311.038C379.644 309.426 392.788 295.961 405.931 290.998C419.075 285.941 432.218 289.385 445.362 293.503C458.505 297.683 471.649 302.694 478.22 305.199L484.792 307.704V322.734H478.22C471.649 322.734 458.505 322.734 445.362 322.734C432.218 322.734 419.075 322.734 405.931 322.734C392.788 322.734 379.644 322.734 366.501 322.734C353.357 322.734 340.214 322.734 327.07 322.734C313.927 322.734 300.783 322.734 287.64 322.734C274.496 322.734 261.352 322.734 254.781 322.734H248.209V302.694Z" fill="#000033"/>
</g>
<path d="M492.994 182.346L484.891 175.07C476.798 167.669 460.578 153.302 443.232 153.471C425.886 153.639 407.367 168.962 390.021 169.131C372.675 169.3 356.455 154.932 338.982 156.74C321.5 158.672 302.741 177.087 285.005 182.297C267.259 187.631 250.56 179.449 233.07 181.473C215.581 183.497 197.349 195.109 188.216 201.131L179.093 207.03L186.757 108.063L195.37 108.751C203.983 109.44 221.209 110.818 238.435 112.196C255.661 113.574 272.887 114.951 290.114 116.329C307.34 117.707 324.566 119.085 341.792 120.462C359.018 121.84 376.244 123.218 393.47 124.596C410.696 125.973 427.922 127.351 445.148 128.729C462.374 130.107 479.6 131.484 488.213 132.173L496.826 132.862L492.994 182.346Z" fill="white" fill-opacity="0.5"/>
<path d="M542.733 152.717L538.043 153.745C533.354 154.85 524.017 156.789 514.552 160.997C505.194 165.127 495.836 171.332 486.37 176.51C477.012 181.61 467.654 185.876 458.188 185.817C448.852 185.876 439.472 181.61 430.007 175.463C420.692 169.199 411.291 161.055 401.825 158.922C392.532 156.789 383.109 161.055 373.859 166.155C364.372 171.332 354.927 177.538 345.677 175.463C336.211 173.465 326.746 162.994 317.495 154.792C308.051 146.512 298.564 140.307 289.314 137.204C279.891 134.102 270.598 134.102 261.132 136.177C251.731 138.174 242.416 142.44 237.683 144.437L232.951 146.512V134.102H237.64C242.33 134.102 251.667 134.102 261.132 134.102C270.49 134.102 279.848 134.102 289.314 134.102C298.672 134.102 308.03 134.102 317.495 134.102C326.832 134.102 336.211 134.102 345.677 134.102C354.992 134.102 364.393 134.102 373.859 134.102C383.152 134.102 392.575 134.102 401.825 134.102C411.312 134.102 420.756 134.102 430.007 134.102C439.472 134.102 448.938 134.102 458.188 134.102C467.632 134.102 477.119 134.102 486.37 134.102C495.792 134.102 505.086 134.102 514.552 134.102C523.953 134.102 533.268 134.102 538 134.102H542.733V152.717Z" fill="white" fill-opacity="0.3"/>
<path d="M496.882 157.63L489.286 159.566C481.689 161.43 466.495 165.412 451.302 167.276C436.108 169.213 420.915 169.213 405.721 163.421C390.527 157.63 375.334 146.047 360.14 147.983C344.947 149.847 329.753 165.412 314.56 171.149C299.366 176.995 284.173 173.013 268.979 168.253C253.785 163.421 238.592 157.63 230.995 154.734L223.398 151.838V134.464H230.995C238.592 134.464 253.785 134.464 268.979 134.464C284.173 134.464 299.366 134.464 314.56 134.464C329.753 134.464 344.947 134.464 360.14 134.464C375.334 134.464 390.527 134.464 405.721 134.464C420.915 134.464 436.108 134.464 451.302 134.464C466.495 134.464 481.689 134.464 489.286 134.464H496.882V157.63Z" fill="white" fill-opacity="0.1"/>
<rect x="308.01" y="225.289" width="93.1316" height="3.23574" rx="1.61787" fill="#000033" fill-opacity="0.4"/>
<rect x="308.01" y="234.996" width="88.5886" height="3.23574" rx="1.61787" fill="#000033" fill-opacity="0.4"/>
<rect x="308.01" y="244.704" width="93.1316" height="3.23574" rx="1.61787" fill="#000033" fill-opacity="0.4"/>
<rect x="308.01" y="254.411" width="88.5886" height="3.23574" rx="1.61787" fill="#000033" fill-opacity="0.4"/>
<rect x="308.01" y="264.118" width="49.2159" height="3.23574" rx="1.61787" fill="#000033" fill-opacity="0.4"/>
<rect x="308.011" y="196.977" width="50.9438" height="14.5608" rx="7.28042" fill="#000033" fill-opacity="0.6"/>
<rect x="453.193" y="149.419" width="14.0954" height="1.71896" rx="0.85948" fill="#000033" fill-opacity="0.6"/>
<rect x="453.193" y="145.981" width="14.0954" height="1.71896" rx="0.85948" fill="#000033" fill-opacity="0.6"/>
<rect x="453.193" y="142.543" width="14.0954" height="1.71896" rx="0.85948" fill="#000033" fill-opacity="0.6"/>
</g>
<rect x="8" y="142.944" width="130" height="270.642" rx="20" fill="#000033"/>
<rect x="4" y="138.944" width="138" height="278.642" rx="24" fill="white" fill-opacity="0.3" stroke="white" stroke-width="8" stroke-linejoin="round" stroke-dasharray="24 12"/>
<g filter="url(#filter0_d)">
<rect x="78" y="132.949" width="135" height="281.051" rx="12" fill="#000033"/>
<rect x="72" y="126.949" width="147" height="293.051" rx="26" fill="white" fill-opacity="0.8" stroke="white" stroke-width="12"/>
<mask id="mask1" mask-type="alpha" maskUnits="userSpaceOnUse" x="78" y="132" width="135" height="282">
<rect x="78" y="132.949" width="135" height="281.051" fill="white"/>
</mask>
<g mask="url(#mask1)">
<rect x="91.1506" y="265.615" width="108.493" height="50.3793" fill="#000033" fill-opacity="0.4"/>
<rect x="85.4282" y="226.617" width="119.732" height="95.6851" stroke="#000033" stroke-linejoin="round" stroke-dasharray="6 4"/>
<rect x="90.9966" y="232.524" width="59.4115" height="17.0701" fill="#000033" fill-opacity="0.6"/>
<rect x="186.612" y="147.174" width="13.1507" height="13.4345" fill="#000033" fill-opacity="0.6"/>
</g>
</g>
<g filter="url(#filter1_d)">
<rect x="147" y="105.958" width="157" height="313.87" rx="26" fill="url(#paint0_linear)" stroke="white" stroke-width="12"/>
<mask id="mask2" mask-type="alpha" maskUnits="userSpaceOnUse" x="153" y="111" width="145" height="303">
<rect x="153" y="111.958" width="145" height="301.87" rx="20" fill="#FF66CC"/>
</mask>
<g mask="url(#mask2)">
<g opacity="0.75">
<path d="M121.149 362.447L129.929 370.373C138.699 378.433 156.275 394.083 175.071 393.9C193.867 393.716 213.934 377.025 232.73 376.841C251.526 376.658 269.102 392.307 288.035 390.338C306.979 388.234 327.306 368.175 346.525 362.5C365.754 356.69 383.849 365.602 402.8 363.397C421.752 361.192 441.508 348.544 451.404 341.984L461.29 335.559L452.985 443.361L443.652 442.611C434.319 441.861 415.653 440.36 396.987 438.859C378.321 437.358 359.655 435.858 340.989 434.357C322.323 432.856 303.657 431.355 284.991 429.855C266.325 428.354 247.659 426.853 228.993 425.352C210.327 423.852 191.66 422.351 172.994 420.85C154.328 419.349 135.662 417.849 126.329 417.098L116.996 416.348L121.149 362.447Z" fill="#000033" fill-opacity="0.2"/>
<path d="M67.252 394.72L72.3337 393.601C77.4155 392.397 87.5325 390.285 97.7893 385.701C107.93 381.202 118.07 374.443 128.327 368.803C138.467 363.248 148.607 358.602 158.864 358.665C168.981 358.602 179.145 363.248 189.401 369.944C199.495 376.766 209.682 385.638 219.939 387.961C230.009 390.285 240.219 385.638 250.243 380.083C260.523 374.443 270.757 367.684 280.78 369.944C291.037 372.12 301.294 383.525 311.318 392.46C321.551 401.479 331.832 408.238 341.855 411.618C352.065 414.997 362.136 414.997 372.393 412.737C382.579 410.562 392.673 405.915 397.802 403.739L402.93 401.479V414.997H397.848C392.766 414.997 382.649 414.997 372.393 414.997C362.252 414.997 352.112 414.997 341.855 414.997C331.715 414.997 321.575 414.997 311.318 414.997C301.201 414.997 291.037 414.997 280.78 414.997C270.687 414.997 260.5 414.997 250.243 414.997C240.173 414.997 229.963 414.997 219.939 414.997C209.659 414.997 199.425 414.997 189.401 414.997C179.145 414.997 168.888 414.997 158.864 414.997C148.631 414.997 138.35 414.997 128.327 414.997C118.117 414.997 108.046 414.997 97.7893 414.997C87.6024 414.997 77.5088 414.997 72.3804 414.997H67.252V394.72Z" fill="#000033" fill-opacity="0.5"/>
<path d="M116.936 389.37L125.167 387.26C133.399 385.23 149.863 380.893 166.326 378.862C182.79 376.753 199.254 376.753 215.717 383.061C232.181 389.37 248.645 401.987 265.108 399.877C281.572 397.847 298.035 380.893 314.499 374.643C330.963 368.276 347.426 372.613 363.89 377.797C380.354 383.061 396.817 389.37 405.049 392.524L413.281 395.678V414.604H405.049C396.817 414.604 380.354 414.604 363.89 414.604C347.426 414.604 330.963 414.604 314.499 414.604C298.035 414.604 281.572 414.604 265.108 414.604C248.645 414.604 232.181 414.604 215.717 414.604C199.254 414.604 182.79 414.604 166.326 414.604C149.863 414.604 133.399 414.604 125.167 414.604H116.936V389.37Z" fill="#000033"/>
</g>
<path d="M423.555 172.898L413.406 163.736C403.268 154.418 382.95 136.327 361.223 136.54C339.496 136.752 316.298 156.046 294.571 156.258C272.843 156.471 252.526 138.38 230.639 140.656C208.741 143.088 185.243 166.277 163.027 172.837C140.798 179.553 119.881 169.25 97.9734 171.799C76.0659 174.348 53.2284 188.969 41.7886 196.552L30.3609 203.98L39.9613 79.3628L50.75 80.2303C61.5387 81.0977 83.1162 82.8325 104.694 84.5673C126.271 86.3022 147.849 88.037 169.426 89.7718C191.003 91.5067 212.581 93.2415 234.158 94.9763C255.736 96.7112 277.313 98.446 298.891 100.181C320.468 101.916 342.046 103.651 363.623 105.385C385.201 107.12 406.778 108.855 417.567 109.722L428.355 110.59L423.555 172.898Z" fill="white" fill-opacity="0.5"/>
<path d="M485.859 135.59L479.984 136.885C474.11 138.276 462.415 140.718 450.558 146.016C438.836 151.217 427.114 159.03 415.258 165.55C403.536 171.971 391.814 177.343 379.957 177.269C368.262 177.343 356.514 171.971 344.657 164.231C332.989 156.345 321.213 146.09 309.357 143.404C297.716 140.718 285.913 146.09 274.326 152.511C262.442 159.03 250.612 166.844 239.025 164.231C227.169 161.716 215.312 148.531 203.725 138.203C191.895 127.777 180.012 119.964 168.424 116.057C156.622 112.151 144.981 112.151 133.124 114.763C121.348 117.278 109.68 122.65 103.752 125.165L97.8236 127.777V112.151H103.698C109.572 112.151 121.267 112.151 133.124 112.151C144.846 112.151 156.568 112.151 168.424 112.151C180.146 112.151 191.868 112.151 203.725 112.151C215.42 112.151 227.169 112.151 239.025 112.151C250.693 112.151 262.469 112.151 274.326 112.151C285.967 112.151 297.769 112.151 309.357 112.151C321.24 112.151 333.07 112.151 344.657 112.151C356.514 112.151 368.37 112.151 379.957 112.151C391.787 112.151 403.671 112.151 415.258 112.151C427.061 112.151 438.702 112.151 450.558 112.151C462.334 112.151 474.002 112.151 479.93 112.151H485.859V135.59Z" fill="white" fill-opacity="0.3"/>
<path d="M428.426 141.776L418.91 144.214C409.394 146.562 390.362 151.575 371.331 153.923C352.299 156.361 333.268 156.361 314.236 149.069C295.205 141.776 276.173 127.191 257.142 129.629C238.11 131.977 219.079 151.575 200.047 158.799C181.016 166.16 161.984 161.147 142.953 155.153C123.921 149.069 104.89 141.776 95.3739 138.13L85.8581 134.483V112.606H95.3739C104.89 112.606 123.921 112.606 142.953 112.606C161.984 112.606 181.016 112.606 200.047 112.606C219.079 112.606 238.11 112.606 257.142 112.606C276.173 112.606 295.205 112.606 314.236 112.606C333.268 112.606 352.299 112.606 371.331 112.606C390.362 112.606 409.394 112.606 418.91 112.606H428.426V141.776Z" fill="white" fill-opacity="0.1"/>
<rect x="166.959" y="254.56" width="116.657" height="4.07435" rx="2.03718" fill="#000033" fill-opacity="0.4"/>
<rect x="166.959" y="266.783" width="110.966" height="4.07435" rx="2.03718" fill="#000033" fill-opacity="0.4"/>
<rect x="166.959" y="279.006" width="116.657" height="4.07435" rx="2.03718" fill="#000033" fill-opacity="0.4"/>
<rect x="166.959" y="291.23" width="110.966" height="4.07435" rx="2.03718" fill="#000033" fill-opacity="0.4"/>
<rect x="166.959" y="303.452" width="61.648" height="4.07435" rx="2.03718" fill="#000033" fill-opacity="0.4"/>
<rect x="166.959" y="218.91" width="63.8124" height="18.3346" rx="9.16729" fill="#000033" fill-opacity="0.6"/>
<rect x="269.657" y="135.385" width="13.959" height="2.03719" rx="1.0186" fill="#000033" fill-opacity="0.6"/>
<rect x="269.657" y="131.311" width="13.959" height="2.03719" rx="1.0186" fill="#000033" fill-opacity="0.6"/>
<rect x="269.657" y="127.237" width="13.959" height="2.03719" rx="1.0186" fill="#000033" fill-opacity="0.6"/>
</g>
</g>
<defs>
<filter id="filter0_d" x="51" y="110.949" width="179" height="325.051" filterUnits="userSpaceOnUse" color-interpolation-filters="sRGB">
<feFlood flood-opacity="0" result="BackgroundImageFix"/>
<feColorMatrix in="SourceAlpha" type="matrix" values="0 0 0 0 0 0 0 0 0 0 0 0 0 0 0 0 0 0 127 0"/>
<feOffset dx="-5"/>
<feGaussianBlur stdDeviation="5"/>
<feColorMatrix type="matrix" values="0 0 0 0 0 0 0 0 0 0 0 0 0 0 0 0 0 0 0.2 0"/>
<feBlend mode="normal" in2="BackgroundImageFix" result="effect1_dropShadow"/>
<feBlend mode="normal" in="SourceGraphic" in2="effect1_dropShadow" result="shape"/>
</filter>
<filter id="filter1_d" x="126" y="89.9578" width="189" height="345.87" filterUnits="userSpaceOnUse" color-interpolation-filters="sRGB">
<feFlood flood-opacity="0" result="BackgroundImageFix"/>
<feColorMatrix in="SourceAlpha" type="matrix" values="0 0 0 0 0 0 0 0 0 0 0 0 0 0 0 0 0 0 127 0"/>
<feOffset dx="-5"/>
<feGaussianBlur stdDeviation="5"/>
<feColorMatrix type="matrix" values="0 0 0 0 0 0 0 0 0 0 0 0 0 0 0 0 0 0 0.2 0"/>
<feBlend mode="normal" in2="BackgroundImageFix" result="effect1_dropShadow"/>
<feBlend mode="normal" in="SourceGraphic" in2="effect1_dropShadow" result="shape"/>
</filter>
<linearGradient id="paint0_linear" x1="153" y1="111.958" x2="293.573" y2="119.612" gradientUnits="userSpaceOnUse">
<stop stop-color="#FF66CC"/>
<stop offset="1" stop-color="#BA55DD"/>
</linearGradient>
</defs>
</svg>
