<svg width="667" height="448" viewBox="0 0 667 448" fill="none" xmlns="http://www.w3.org/2000/svg">
<g filter="url(#filter0_d)">
<rect x="124.374" y="12.0938" width="522.626" height="380.865" rx="24" fill="url(#paint0_linear)" stroke="white" stroke-width="16"/>
<rect x="280.902" y="179.365" width="209.746" height="6.01426" rx="3.00713" fill="#000033" fill-opacity="0.4"/>
<rect x="280.902" y="199.411" width="198.707" height="6.01426" rx="3.00713" fill="#000033" fill-opacity="0.4"/>
<rect x="280.902" y="219.457" width="209.746" height="6.01426" rx="3.00713" fill="#000033" fill-opacity="0.4"/>
<rect x="280.902" y="239.503" width="198.707" height="6.01426" rx="3.00713" fill="#000033" fill-opacity="0.4"/>
<rect x="280.902" y="259.549" width="111.396" height="6.01426" rx="3.00713" fill="#000033" fill-opacity="0.4"/>
<rect x="280.902" y="128.248" width="89.3178" height="24.0551" rx="12.0276" fill="#000033" fill-opacity="0.6"/>
<mask id="mask0" mask-type="alpha" maskUnits="userSpaceOnUse" x="132" y="20" width="507" height="365">
<rect x="132.374" y="20" width="506.626" height="364.865" rx="16" fill="#33FFFF"/>
</mask>
<g mask="url(#mask0)">
<g opacity="0.75">
<path d="M120.701 289.251L138.183 304.68C155.645 320.371 190.641 350.834 228.065 350.477C265.49 350.119 305.446 317.629 342.871 317.272C380.295 316.914 415.291 347.378 452.99 343.545C490.709 339.449 531.182 300.401 569.449 289.355C607.737 278.046 643.766 295.394 681.5 291.102C719.235 286.81 758.572 262.189 778.276 249.42L797.96 236.912L781.424 446.758L762.841 445.297C744.257 443.837 707.091 440.915 669.925 437.994C632.759 435.073 595.593 432.151 558.427 429.23C521.26 426.309 484.094 423.387 446.928 420.466C409.762 417.545 372.596 414.623 335.43 411.702C298.263 408.781 261.097 405.859 223.931 402.938C186.765 400.017 149.599 397.095 131.016 395.635L112.433 394.174L120.701 289.251Z" fill="#000033" fill-opacity="0.2"/>
<path d="M13.3862 352.075L23.5046 349.896C33.6231 347.552 53.7671 343.441 74.1895 334.519C94.38 325.761 114.57 312.604 134.993 301.626C155.183 290.813 175.374 281.768 195.796 281.891C215.94 281.768 236.177 290.813 256.599 303.847C276.697 317.127 296.98 334.396 317.403 338.918C337.454 343.441 357.784 334.396 377.742 323.582C398.211 312.604 418.587 299.447 438.545 303.847C458.968 308.082 479.39 330.284 499.349 347.676C519.725 365.232 540.194 378.389 560.152 384.968C580.482 391.546 600.533 391.546 620.955 387.147C641.238 382.912 661.336 373.866 671.547 369.632L681.759 365.232V391.546H671.64C661.522 391.546 641.378 391.546 620.955 391.546C600.765 391.546 580.574 391.546 560.152 391.546C539.962 391.546 519.771 391.546 499.349 391.546C479.205 391.546 458.968 391.546 438.545 391.546C418.448 391.546 398.164 391.546 377.742 391.546C357.691 391.546 337.361 391.546 317.403 391.546C296.934 391.546 276.558 391.546 256.599 391.546C236.177 391.546 215.755 391.546 195.796 391.546C175.42 391.546 154.951 391.546 134.993 391.546C114.663 391.546 94.612 391.546 74.1895 391.546C53.9063 391.546 33.8087 391.546 23.5975 391.546H13.3862L13.3862 352.075Z" fill="#000033" fill-opacity="0.5"/>
<path d="M112.312 341.659L128.702 337.553C145.093 333.6 177.874 325.158 210.655 321.205C243.436 317.099 276.216 317.099 308.997 329.379C341.778 341.659 374.559 366.219 407.34 362.113C440.121 358.161 472.902 325.158 505.683 312.993C538.464 300.598 571.245 309.04 604.026 319.133C636.807 329.379 669.588 341.659 685.978 347.799L702.368 353.939V390.78H685.978C669.588 390.78 636.807 390.78 604.026 390.78C571.245 390.78 538.464 390.78 505.683 390.78C472.902 390.78 440.121 390.78 407.34 390.78C374.559 390.78 341.778 390.78 308.997 390.78C276.216 390.78 243.436 390.78 210.655 390.78C177.874 390.78 145.093 390.78 128.702 390.78H112.312V341.659Z" fill="white" fill-opacity="0.75"/>
</g>
<path d="M707.378 97.6637L689.896 82.2352C672.434 66.5444 637.438 36.0809 600.013 36.4384C562.589 36.7959 522.632 69.286 485.208 69.6435C447.783 70.001 412.787 39.5374 375.089 43.3705C337.37 47.4659 296.896 86.5137 258.63 97.5602C220.342 108.869 184.313 91.5208 146.578 95.8129C108.844 100.105 69.5071 124.726 49.8026 137.495L30.1189 150.003L46.655 -59.843L65.2381 -58.3823C83.8212 -56.9216 120.987 -54.0003 158.154 -51.079C195.32 -48.1576 232.486 -45.2363 269.652 -42.315C306.818 -39.3937 343.984 -36.4723 381.151 -33.551C418.317 -30.6297 455.483 -27.7083 492.649 -24.787C529.815 -21.8657 566.981 -18.9443 604.147 -16.023C641.314 -13.1017 678.48 -10.1804 697.063 -8.7197L715.646 -7.25903L707.378 97.6637Z" fill="white" fill-opacity="0.5"/>
<path d="M707.378 97.6637L689.896 82.2352C672.434 66.5444 637.438 36.0809 600.013 36.4384C562.589 36.7959 522.632 69.286 485.208 69.6435C447.783 70.001 412.787 39.5374 375.089 43.3705C337.37 47.4659 296.896 86.5137 258.63 97.5602C220.342 108.869 184.313 91.5208 146.578 95.8129C108.844 100.105 69.5071 124.726 49.8026 137.495L30.1189 150.003L46.655 -59.843L65.2381 -58.3823C83.8212 -56.9216 120.987 -54.0003 158.154 -51.079C195.32 -48.1576 232.486 -45.2363 269.652 -42.315C306.818 -39.3937 343.984 -36.4723 381.151 -33.551C418.317 -30.6297 455.483 -27.7083 492.649 -24.787C529.815 -21.8657 566.981 -18.9443 604.147 -16.023C641.314 -13.1017 678.48 -10.1804 697.063 -8.7197L715.646 -7.25903L707.378 97.6637Z" fill="#000033" fill-opacity="0.4"/>
<path d="M814.692 34.8396L804.574 37.0187C794.456 39.3623 774.312 43.4739 753.889 52.3959C733.699 61.1536 713.508 74.3105 693.086 85.2884C672.895 96.1018 652.705 105.147 632.282 105.024C612.138 105.147 591.902 96.1018 571.479 83.0682C551.382 69.7878 531.098 52.5193 510.676 47.9966C490.625 43.4739 470.295 52.5193 450.337 63.3327C429.868 74.3105 409.492 87.4675 389.533 83.0682C369.111 78.8333 348.688 56.6308 328.73 39.239C308.354 21.6826 287.885 8.52563 267.927 1.94714C247.597 -4.63135 227.546 -4.63135 207.123 -0.231982C186.84 4.00292 166.743 13.0483 156.531 17.2833L146.32 21.6826V-4.63135L156.439 -4.63135C166.557 -4.63135 186.701 -4.63135 207.123 -4.63135C227.314 -4.63135 247.504 -4.63135 267.927 -4.63135C288.117 -4.63135 308.308 -4.63135 328.73 -4.63135C348.874 -4.63135 369.111 -4.63135 389.533 -4.63135C409.631 -4.63135 429.914 -4.63135 450.337 -4.63135C470.388 -4.63135 490.717 -4.63135 510.676 -4.63135C531.145 -4.63135 551.521 -4.63135 571.479 -4.63135C591.902 -4.63135 612.324 -4.63135 632.282 -4.63135C652.659 -4.63135 673.127 -4.63135 693.086 -4.63135C713.415 -4.63135 733.467 -4.63135 753.889 -4.63135C774.172 -4.63135 794.27 -4.63135 804.481 -4.63135L814.692 -4.63135V34.8396Z" fill="#000033" fill-opacity="0.12"/>
<path d="M715.767 45.2557L699.376 49.3618C682.986 53.3145 650.205 61.757 617.424 65.7097C584.643 69.8158 551.862 69.8158 519.081 57.5358C486.3 45.2557 453.519 20.6955 420.739 24.8017C387.958 28.7543 355.177 61.757 322.396 73.922C289.615 86.3172 256.834 77.8746 224.053 67.7819C191.272 57.5358 158.491 45.2557 142.101 39.1156L125.71 32.9756V-3.86462L142.101 -3.86462C158.491 -3.86462 191.272 -3.86462 224.053 -3.86462C256.834 -3.86462 289.615 -3.86462 322.396 -3.86462C355.177 -3.86462 387.958 -3.86462 420.739 -3.86462C453.519 -3.86462 486.3 -3.86462 519.081 -3.86462C551.862 -3.86462 584.643 -3.86462 617.424 -3.86462C650.205 -3.86462 682.986 -3.86462 699.376 -3.86462L715.767 -3.86462V45.2557Z" fill="white" fill-opacity="0.1"/>
</g>
<rect x="459.538" y="39.0437" width="50.1785" height="5.01188" rx="2.50594" fill="white" fill-opacity="0.6"/>
<rect x="576.956" y="39.0437" width="44.1571" height="5.01188" rx="2.50594" fill="white"/>
<rect x="526.777" y="39.0437" width="33.1178" height="5.01188" rx="2.50594" fill="white" fill-opacity="0.6"/>
</g>
<g filter="url(#filter1_d)">
<rect x="71.1964" y="89.1462" width="158.47" height="336.854" rx="26" fill="url(#paint1_linear)" stroke="white" stroke-width="12"/>
<rect x="71.1964" y="89.1462" width="158.47" height="326.078" rx="26" fill="url(#paint2_linear)" stroke="white" stroke-width="12"/>
<mask id="mask1" mask-type="alpha" maskUnits="userSpaceOnUse" x="77" y="95" width="147" height="315">
<rect x="77.1964" y="95.1462" width="146.47" height="314.078" rx="20" fill="#33FFFF"/>
</mask>
<g mask="url(#mask1)">
<g opacity="0.75">
<path d="M45.2259 358.121L54.039 365.904C62.8417 373.82 80.4836 389.187 99.3498 389.007C118.216 388.826 138.359 372.437 157.225 372.256C176.091 372.076 193.733 387.443 212.737 385.51C231.752 383.444 252.155 363.746 271.446 358.173C290.747 352.469 308.91 361.22 327.933 359.055C346.955 356.89 366.785 344.469 376.718 338.028L386.641 331.718L378.305 437.577L368.937 436.84C359.569 436.103 340.833 434.629 322.097 433.156C303.361 431.682 284.625 430.208 265.889 428.735C247.153 427.261 228.417 425.787 209.682 424.313C190.946 422.84 172.21 421.366 153.474 419.892C134.738 418.419 116.002 416.945 97.2657 415.471C78.5298 413.998 59.7938 412.524 50.4258 411.787L41.0579 411.05L45.2259 358.121Z" fill="#000033" fill-opacity="0.2"/>
<path d="M-8.87305 389.813L-3.77222 388.714C1.32861 387.532 11.4835 385.458 21.7787 380.957C31.957 376.539 42.1352 369.902 52.4305 364.364C62.6088 358.909 72.787 354.346 83.0823 354.408C93.2371 354.346 103.439 358.909 113.734 365.484C123.866 372.183 134.091 380.895 144.386 383.176C154.494 385.458 164.742 380.895 174.804 375.44C185.122 369.902 195.394 363.265 205.455 365.484C215.751 367.62 226.046 378.82 236.107 387.594C246.379 396.45 256.698 403.087 266.759 406.406C277.007 409.725 287.115 409.725 297.411 407.505C307.636 405.369 317.767 400.806 322.915 398.67L328.062 396.45V409.725H322.962C317.861 409.725 307.706 409.725 297.411 409.725C287.232 409.725 277.054 409.725 266.759 409.725C256.581 409.725 246.402 409.725 236.107 409.725C225.952 409.725 215.751 409.725 205.455 409.725C195.324 409.725 185.099 409.725 174.804 409.725C164.696 409.725 154.447 409.725 144.386 409.725C134.067 409.725 123.795 409.725 113.734 409.725C103.439 409.725 93.1435 409.725 83.0823 409.725C72.8104 409.725 62.4918 409.725 52.4305 409.725C42.182 409.725 32.074 409.725 21.7787 409.725C11.5537 409.725 1.4222 409.725 -3.72542 409.725H-8.87305L-8.87305 389.813Z" fill="#000033" fill-opacity="0.5"/>
<path d="M40.9969 384.559L49.2596 382.487C57.5222 380.493 74.0475 376.235 90.5728 374.241C107.098 372.169 123.623 372.169 140.149 378.364C156.674 384.559 173.199 396.948 189.725 394.877C206.25 392.883 222.775 376.235 239.301 370.098C255.826 363.845 272.351 368.104 288.876 373.195C305.402 378.364 321.927 384.559 330.19 387.656L338.452 390.754V409.338H330.19C321.927 409.338 305.402 409.338 288.876 409.338C272.351 409.338 255.826 409.338 239.301 409.338C222.775 409.338 206.25 409.338 189.725 409.338C173.199 409.338 156.674 409.338 140.149 409.338C123.623 409.338 107.098 409.338 90.5728 409.338C74.0475 409.338 57.5222 409.338 49.2596 409.338H40.9969V384.559Z" fill="white" fill-opacity="0.75"/>
</g>
<path d="M348.765 149.987L338.577 140.99C328.402 131.84 308.008 114.075 286.199 114.284C264.39 114.492 241.106 133.439 219.297 133.647C197.488 133.856 177.095 116.091 155.126 118.326C133.146 120.714 109.56 143.485 87.2605 149.926C64.9487 156.521 43.9529 146.405 21.9634 148.908C-0.0261298 151.41 -22.9492 165.768 -34.4318 173.214L-45.9024 180.508L-36.266 58.1383L-25.4369 58.9901C-14.6077 59.8419 7.05055 61.5454 28.7088 63.249C50.3671 64.9525 72.0254 66.656 93.6837 68.3596C115.342 70.0631 137 71.7667 158.659 73.4702C180.317 75.1738 201.975 76.8773 223.633 78.5809C245.292 80.2844 266.95 81.9879 288.608 83.6915C310.267 85.395 331.925 87.0986 342.754 87.9504L353.583 88.8021L348.765 149.987Z" fill="#000033" fill-opacity="0.4"/>
<path d="M411.302 113.351L405.405 114.622C399.509 115.989 387.77 118.386 375.869 123.589C364.103 128.696 352.337 136.368 340.436 142.77C328.671 149.076 316.905 154.351 305.004 154.279C293.265 154.351 281.472 149.076 269.571 141.475C257.859 133.731 246.04 123.661 234.138 121.024C222.454 118.386 210.607 123.661 198.976 129.967C187.048 136.368 175.174 144.041 163.544 141.475C151.643 139.006 139.742 126.059 128.111 115.917C116.237 105.679 104.309 98.0066 92.6784 94.1704C80.8314 90.3342 69.1468 90.3342 57.2457 92.8997C45.4258 95.3692 33.7141 100.644 27.7636 103.114L21.8131 105.679V90.3342H27.7095C33.606 90.3342 45.3447 90.3342 57.2457 90.3342C69.0115 90.3342 80.7773 90.3342 92.6784 90.3342C104.444 90.3342 116.21 90.3342 128.111 90.3342C139.85 90.3342 151.643 90.3342 163.544 90.3342C175.255 90.3342 187.075 90.3342 198.976 90.3342C210.661 90.3342 222.508 90.3342 234.138 90.3342C246.067 90.3342 257.941 90.3342 269.571 90.3342C281.472 90.3342 293.373 90.3342 305.004 90.3342C316.878 90.3342 328.806 90.3342 340.436 90.3342C352.283 90.3342 363.968 90.3342 375.869 90.3342C387.689 90.3342 399.401 90.3342 405.351 90.3342H411.302V113.351Z" fill="#000033" fill-opacity="0.12"/>
<path d="M353.654 119.426L344.102 121.82C334.551 124.125 315.448 129.048 296.345 131.353C277.242 133.748 258.139 133.748 239.037 126.587C219.934 119.426 200.831 105.104 181.728 107.498C162.625 109.803 143.523 129.048 124.42 136.142C105.317 143.37 86.2141 138.447 67.1113 132.562C48.0085 126.587 28.9057 119.426 19.3543 115.845L9.80289 112.265V90.7816H19.3543C28.9057 90.7816 48.0085 90.7816 67.1113 90.7816C86.2141 90.7816 105.317 90.7816 124.42 90.7816C143.523 90.7816 162.625 90.7816 181.728 90.7816C200.831 90.7816 219.934 90.7816 239.037 90.7816C258.139 90.7816 277.242 90.7816 296.345 90.7816C315.448 90.7816 334.551 90.7816 344.102 90.7816H353.654V119.426Z" fill="white" fill-opacity="0.1"/>
<rect x="91.2078" y="230.175" width="117.094" height="4.00087" rx="2.00043" fill="#000033" fill-opacity="0.4"/>
<rect x="91.2078" y="242.178" width="111.382" height="4.00087" rx="2.00043" fill="#000033" fill-opacity="0.4"/>
<rect x="91.2078" y="254.18" width="117.094" height="4.00087" rx="2.00043" fill="#000033" fill-opacity="0.4"/>
<rect x="91.2078" y="266.183" width="111.382" height="4.00087" rx="2.00043" fill="#000033" fill-opacity="0.4"/>
<rect x="91.2078" y="278.186" width="61.879" height="4.00087" rx="2.00043" fill="#000033" fill-opacity="0.4"/>
<rect x="91.2081" y="195.168" width="64.0514" height="18.0039" rx="9.00195" fill="#000033" fill-opacity="0.6"/>
<rect x="194.539" y="117.151" width="14.0113" height="2.00043" rx="1.00022" fill="white"/>
<rect x="194.539" y="113.15" width="14.0113" height="2.00043" rx="1.00022" fill="white"/>
<rect x="194.539" y="109.149" width="14.0113" height="2.00043" rx="1.00022" fill="white"/>
</g>
</g>
<g filter="url(#filter2_d)">
<g filter="url(#filter3_d)">
<rect x="10" y="140.643" width="145.983" height="285.357" rx="26" fill="url(#paint3_linear)" stroke="white" stroke-width="12"/>
</g>
<mask id="mask2" mask-type="alpha" maskUnits="userSpaceOnUse" x="16" y="146" width="134" height="274">
<rect x="16" y="146.643" width="133.983" height="273.357" rx="20" fill="#33FFFF"/>
</mask>
<g mask="url(#mask2)">
<g opacity="0.75">
<path d="M-13.4308 373.471L-5.31774 380.649C2.78576 387.948 19.0263 402.12 36.394 401.953C53.7617 401.787 72.3045 386.673 89.6721 386.506C107.04 386.34 123.28 400.512 140.775 398.729C158.28 396.823 177.062 378.658 194.821 373.52C212.589 368.259 229.309 376.329 246.821 374.332C264.332 372.336 282.587 360.882 291.731 354.942L300.866 349.123L293.192 446.744L284.568 446.064C275.944 445.385 258.697 444.026 241.449 442.667C224.201 441.308 206.953 439.949 189.706 438.59C172.458 437.231 155.21 435.872 137.962 434.513C120.714 433.154 103.467 431.795 86.2189 430.435C68.9711 429.076 51.7233 427.717 34.4755 426.358C17.2277 424.999 -0.0200431 423.64 -8.64393 422.961L-17.2678 422.281L-13.4308 373.471Z" fill="#000033" fill-opacity="0.2"/>
<path d="M-63.2328 402.697L-58.5371 401.683C-53.8414 400.593 -44.4932 398.681 -35.0157 394.53C-25.6459 390.456 -16.276 384.335 -6.79854 379.228C2.57127 374.198 11.9411 369.99 21.4186 370.048C30.7668 369.99 40.1582 374.198 49.6357 380.261C58.9624 386.439 68.3753 394.473 77.8528 396.577C87.158 398.681 96.5924 394.473 105.855 389.442C115.354 384.335 124.81 378.215 134.072 380.261C143.549 382.231 153.027 392.56 162.289 400.651C171.745 408.818 181.244 414.938 190.506 417.999C199.94 421.059 209.246 421.059 218.723 419.012C228.136 417.042 237.463 412.834 242.201 410.864L246.94 408.818V421.059H242.244C237.549 421.059 228.201 421.059 218.723 421.059C209.353 421.059 199.983 421.059 190.506 421.059C181.136 421.059 171.766 421.059 162.289 421.059C152.941 421.059 143.549 421.059 134.072 421.059C124.745 421.059 115.332 421.059 105.855 421.059C96.5494 421.059 87.1149 421.059 77.8528 421.059C68.3538 421.059 58.8978 421.059 49.6357 421.059C40.1582 421.059 30.6807 421.059 21.4186 421.059C11.9626 421.059 2.46357 421.059 -6.79854 421.059C-16.233 421.059 -25.5382 421.059 -35.0157 421.059C-44.4286 421.059 -53.7553 421.059 -58.494 421.059H-63.2328V402.697Z" fill="#000033" fill-opacity="0.5"/>
<path d="M-17.324 397.852L-9.71762 395.941C-2.11127 394.103 13.1014 390.175 28.3141 388.336C43.5269 386.426 58.7396 386.426 73.9523 392.139C89.165 397.852 104.378 409.277 119.59 407.367C134.803 405.528 150.016 390.175 165.229 384.516C180.441 378.75 195.654 382.677 210.867 387.372C226.079 392.139 241.292 397.852 248.898 400.708L256.505 403.564V420.702H248.898C241.292 420.702 226.079 420.702 210.867 420.702C195.654 420.702 180.441 420.702 165.229 420.702C150.016 420.702 134.803 420.702 119.59 420.702C104.378 420.702 89.165 420.702 73.9523 420.702C58.7396 420.702 43.5269 420.702 28.3141 420.702C13.1014 420.702 -2.11127 420.702 -9.71762 420.702H-17.324L-17.324 397.852Z" fill="white" fill-opacity="0.75"/>
</g>
<path d="M265.998 201.827L256.62 193.531C247.252 185.093 228.479 168.711 208.402 168.903C188.326 169.095 166.891 186.567 146.814 186.759C126.737 186.952 107.964 170.57 87.7402 172.631C67.5056 174.833 45.7935 195.831 25.265 201.772C4.72545 207.853 -14.6026 198.524 -34.8455 200.832C-55.0885 203.14 -76.1908 216.38 -86.7613 223.247L-97.3208 229.973L-88.4499 117.127L-78.4809 117.912C-68.5119 118.698 -48.5739 120.269 -28.6359 121.84C-8.69791 123.411 11.24 124.982 31.178 126.553C51.116 128.124 71.054 129.695 90.992 131.266C110.93 132.837 130.868 134.408 150.806 135.978C170.744 137.549 190.682 139.12 210.62 140.691C230.558 142.262 250.496 143.833 260.465 144.619L270.434 145.404L265.998 201.827Z" fill="#000033" fill-opacity="0.4"/>
<path d="M323.568 168.043L318.14 169.215C312.711 170.475 301.905 172.686 290.949 177.484C280.118 182.194 269.287 189.269 258.331 195.173C247.5 200.987 236.669 205.852 225.713 205.785C214.907 205.852 204.05 200.987 193.095 193.979C182.313 186.837 171.432 177.551 160.476 175.119C149.72 172.686 138.814 177.551 128.107 183.366C117.126 189.269 106.196 196.344 95.4888 193.979C84.5331 191.701 73.5773 179.762 62.8706 170.409C51.9397 160.968 40.9591 153.893 30.2523 150.355C19.3464 146.817 8.58985 146.817 -2.3659 149.183C-13.2469 151.461 -24.0284 156.325 -29.5063 158.602L-34.9842 160.968V146.817H-29.5561C-24.128 146.817 -13.3216 146.817 -2.3659 146.817C8.46535 146.817 19.2966 146.817 30.2523 146.817C41.0836 146.817 51.9148 146.817 62.8706 146.817C73.6769 146.817 84.5331 146.817 95.4888 146.817C106.27 146.817 117.151 146.817 128.107 146.817C138.864 146.817 149.77 146.817 160.476 146.817C171.457 146.817 182.388 146.817 193.095 146.817C204.05 146.817 215.006 146.817 225.713 146.817C236.644 146.817 247.624 146.817 258.331 146.817C269.237 146.817 279.994 146.817 290.949 146.817C301.83 146.817 312.612 146.817 318.09 146.817H323.568V168.043Z" fill="#000033" fill-opacity="0.12"/>
<path d="M270.498 173.644L261.706 175.852C252.913 177.978 235.327 182.518 217.742 184.644C200.156 186.852 182.571 186.852 164.985 180.248C147.4 173.644 129.815 160.437 112.229 162.645C94.6435 164.771 77.058 182.518 59.4725 189.06C41.8871 195.726 24.3016 191.185 6.71607 185.758C-10.8694 180.248 -28.4549 173.644 -37.2476 170.343L-46.0404 167.041V147.229H-37.2476C-28.4549 147.229 -10.8694 147.229 6.71607 147.229C24.3016 147.229 41.8871 147.229 59.4725 147.229C77.058 147.229 94.6435 147.229 112.229 147.229C129.815 147.229 147.4 147.229 164.985 147.229C182.571 147.229 200.156 147.229 217.742 147.229C235.327 147.229 252.913 147.229 261.706 147.229H270.498V173.644Z" fill="white" fill-opacity="0.3"/>
<rect x="28.8986" y="275.776" width="107.793" height="3.68951" rx="1.84475" fill="#000033" fill-opacity="0.4"/>
<rect x="28.8986" y="286.844" width="102.535" height="3.68951" rx="1.84475" fill="#000033" fill-opacity="0.4"/>
<rect x="28.8986" y="297.913" width="107.793" height="3.68951" rx="1.84475" fill="#000033" fill-opacity="0.4"/>
<rect x="28.8986" y="308.981" width="102.535" height="3.68951" rx="1.84475" fill="#000033" fill-opacity="0.4"/>
<rect x="28.8986" y="320.049" width="56.964" height="3.68951" rx="1.84475" fill="#000033" fill-opacity="0.4"/>
<rect x="28.8989" y="243.492" width="58.9639" height="16.6028" rx="8.30139" fill="#000033" fill-opacity="0.6"/>
<rect x="123.793" y="167.858" width="12.8983" height="1.84539" rx="0.922694" fill="white"/>
<rect x="123.793" y="164.168" width="12.8983" height="1.84539" rx="0.922694" fill="white"/>
<rect x="123.793" y="160.479" width="12.8983" height="1.84539" rx="0.922694" fill="white"/>
</g>
<rect x="48.3407" y="139.262" width="70.2255" height="20.3166" rx="7" fill="white"/>
</g>
<defs>
<filter id="filter0_d" x="112.374" y="0.09375" width="554.626" height="412.865" filterUnits="userSpaceOnUse" color-interpolation-filters="sRGB">
<feFlood flood-opacity="0" result="BackgroundImageFix"/>
<feColorMatrix in="SourceAlpha" type="matrix" values="0 0 0 0 0 0 0 0 0 0 0 0 0 0 0 0 0 0 127 0"/>
<feOffset dx="4" dy="4"/>
<feGaussianBlur stdDeviation="4"/>
<feColorMatrix type="matrix" values="0 0 0 0 0 0 0 0 0 0 0 0 0 0 0 0 0 0 0.1 0"/>
<feBlend mode="normal" in2="BackgroundImageFix" result="effect1_dropShadow"/>
<feBlend mode="normal" in="SourceGraphic" in2="effect1_dropShadow" result="shape"/>
</filter>
<filter id="filter1_d" x="57.1964" y="75.1462" width="194.47" height="372.854" filterUnits="userSpaceOnUse" color-interpolation-filters="sRGB">
<feFlood flood-opacity="0" result="BackgroundImageFix"/>
<feColorMatrix in="SourceAlpha" type="matrix" values="0 0 0 0 0 0 0 0 0 0 0 0 0 0 0 0 0 0 127 0"/>
<feOffset dx="4" dy="4"/>
<feGaussianBlur stdDeviation="6"/>
<feColorMatrix type="matrix" values="0 0 0 0 0 0 0 0 0 0 0 0 0 0 0 0 0 0 0.1 0"/>
<feBlend mode="normal" in2="BackgroundImageFix" result="effect1_dropShadow"/>
<feBlend mode="normal" in="SourceGraphic" in2="effect1_dropShadow" result="shape"/>
</filter>
<filter id="filter2_d" x="0" y="130.643" width="173.983" height="313.357" filterUnits="userSpaceOnUse" color-interpolation-filters="sRGB">
<feFlood flood-opacity="0" result="BackgroundImageFix"/>
<feColorMatrix in="SourceAlpha" type="matrix" values="0 0 0 0 0 0 0 0 0 0 0 0 0 0 0 0 0 0 127 0"/>
<feOffset dx="4" dy="4"/>
<feGaussianBlur stdDeviation="4"/>
<feColorMatrix type="matrix" values="0 0 0 0 0 0 0 0 0 0 0 0 0 0 0 0 0 0 0.1 0"/>
<feBlend mode="normal" in2="BackgroundImageFix" result="effect1_dropShadow"/>
<feBlend mode="normal" in="SourceGraphic" in2="effect1_dropShadow" result="shape"/>
</filter>
<filter id="filter3_d" x="0" y="134.643" width="165.983" height="305.357" filterUnits="userSpaceOnUse" color-interpolation-filters="sRGB">
<feFlood flood-opacity="0" result="BackgroundImageFix"/>
<feColorMatrix in="SourceAlpha" type="matrix" values="0 0 0 0 0 0 0 0 0 0 0 0 0 0 0 0 0 0 127 0"/>
<feOffset dy="4"/>
<feGaussianBlur stdDeviation="2"/>
<feColorMatrix type="matrix" values="0 0 0 0 0 0 0 0 0 0 0 0 0 0 0 0 0 0 0.25 0"/>
<feBlend mode="normal" in2="BackgroundImageFix" result="effect1_dropShadow"/>
<feBlend mode="normal" in="SourceGraphic" in2="effect1_dropShadow" result="shape"/>
</filter>
<linearGradient id="paint0_linear" x1="385.687" y1="20.0937" x2="385.687" y2="384.959" gradientUnits="userSpaceOnUse">
<stop stop-color="#33FFF3"/>
<stop offset="1" stop-color="#51BFEE"/>
</linearGradient>
<linearGradient id="paint1_linear" x1="150.432" y1="95.1462" x2="150.432" y2="420" gradientUnits="userSpaceOnUse">
<stop stop-color="#33FFF3"/>
<stop offset="1" stop-color="#51BFEE"/>
</linearGradient>
<linearGradient id="paint2_linear" x1="150.432" y1="95.1462" x2="150.432" y2="409.224" gradientUnits="userSpaceOnUse">
<stop stop-color="#33FFF3"/>
<stop offset="1" stop-color="#51BFEE"/>
</linearGradient>
<linearGradient id="paint3_linear" x1="82.9914" y1="146.643" x2="82.9914" y2="420" gradientUnits="userSpaceOnUse">
<stop stop-color="#34E3D9"/>
<stop offset="1" stop-color="#51BFEE"/>
</linearGradient>
</defs>
</svg>
