<svg id="Capa_1" data-name="Capa 1" xmlns="http://www.w3.org/2000/svg" viewBox="0 0 511.63 401.99"><defs><style>.cls-1{fill:#280184;}</style></defs><path class="cls-1" d="M49.11,178.73q9.7,6.86,58.52,40.68t74.81,52.1q2.85,2,12.13,8.71T210,291.07q6.15,4.14,14.85,9.28a86.11,86.11,0,0,0,16.42,7.7,45.2,45.2,0,0,0,14.28,2.57h.57a45.2,45.2,0,0,0,14.28-2.57,85.77,85.77,0,0,0,16.41-7.7q8.71-5.14,14.85-9.28t15.42-10.85q9.27-6.71,12.13-8.71,26.26-18.27,133.62-92.79a135.59,135.59,0,0,0,34.82-35.11q14-20.55,14-43.11a43.76,43.76,0,0,0-13.57-32.26Q484.5,54.82,465.94,54.82H45.68q-22,0-33.83,14.84T0,106.78q0,18,15.7,39T49.11,178.73Z" transform="translate(0 -54.82)"/><path class="cls-1" d="M483.07,209.27q-93.63,63.39-142.18,98.51-16.26,12-26.4,18.7t-27,13.7q-16.85,7-31.41,7h-.57q-14.57,0-31.41-7t-27-13.7q-10.12-6.71-26.41-18.7Q132.2,279.51,28.84,209.27A151.31,151.31,0,0,1,0,184.44V411.12a44,44,0,0,0,13.42,32.27,44,44,0,0,0,32.26,13.42H466a45.82,45.82,0,0,0,45.68-45.69V184.44A157.44,157.44,0,0,1,483.07,209.27Z" transform="translate(0 -54.82)"/></svg>