<svg id="Capa_1" data-name="Capa 1" xmlns="http://www.w3.org/2000/svg" viewBox="0 0 438.54 419.12"><defs><style>.cls-1{fill:#280184;}</style></defs><rect class="cls-1" x="5.42" y="136.19" width="94.22" height="282.93"/><path class="cls-1" d="M408.84,171.74q-29.68-32.42-78.51-32.41a113.17,113.17,0,0,0-32.69,4.43,74.12,74.12,0,0,0-24.84,12.42A121.66,121.66,0,0,0,256.67,171a123.51,123.51,0,0,0-11.14,15.1V145.89H151.6l.28,13.71q.3,13.71.29,84.51t-.57,184.72h93.93V270.94q0-14.55,3.14-23.13a60.64,60.64,0,0,1,18.13-24.4q12.13-9.85,30.13-9.86,24.54,0,36.11,17t11.57,47V428.82h93.93V266.66Q438.53,204.14,408.84,171.74Z" transform="translate(0 -9.71)"/><path class="cls-1" d="M53.1,9.71q-23.68,0-38.4,13.85T0,58.53Q0,79.37,14.27,93.36t37.69,14h.57q24,0,38.69-14t14.42-34.83q-.28-21.14-14.57-35T53.1,9.71Z" transform="translate(0 -9.71)"/></svg>